<svg width="225" height="225" viewBox="0 0 225 225" fill="none" xmlns="http://www.w3.org/2000/svg">
<mask id="mask0_16_73" style="mask-type:alpha" maskUnits="userSpaceOnUse" x="0" y="0" width="225" height="225">
<circle cx="112.5" cy="112.5" r="112.5" fill="#D9D9D9"/>
</mask>
<g mask="url(#mask0_16_73)">
<rect width="225" height="225" fill="white"/>
<path d="M100.782 22.1333C79.0084 26.1838 3.99037 32.1145 1.06652 100.524C0.105722 104.112 -7.71889 161.988 39.3186 180.796C76.4163 195.629 102.157 171.437 121.995 188.164C127.684 192.961 130 196.749 128.368 204L128.555 203.979C130.781 201.94 133.262 197.503 136.013 192.699C144.446 177.996 164.637 174.492 178.371 171.243C225.568 160.094 240.622 106.158 205.502 52.229C185.111 20.896 131.631 16.3962 100.782 22.1333Z" fill="#3C3C3B"/>
<path fill-rule="evenodd" clip-rule="evenodd" d="M71.5157 159.002C71.5157 159.002 69.1379 160.184 68.0872 159.002L67.9559 125.056C67.9559 125.056 65.4468 123.203 66.9052 120.611L68.3637 119.167C68.3637 119.167 70.0918 118.019 71.0111 119.312L71.1148 123.051L86.681 131.484L100.277 114.625V111.736C100.277 111.736 100.685 108.467 104.107 110.326C104.107 110.326 107.266 111.003 107.528 113.036L107.127 157.827L100.008 159.271L99.8764 120.259L87.3584 136.675L85.3608 137.38L71.253 129.245L71.5157 159.002Z" fill="white"/>
<path fill-rule="evenodd" clip-rule="evenodd" d="M138.668 109.144L135.35 106.676L122.832 106.517C122.832 106.517 120.862 106.96 120.592 108.349L110.694 158.822C110.694 158.822 112.664 160.972 115.574 159.741L120.053 137.933L134.97 137.615L139.449 160.336L146.976 160.052L138.668 109.144ZM121.373 132.21L124.525 113.167L132.73 113.008L135.212 132.203H121.373V132.21Z" fill="white"/>
<path fill-rule="evenodd" clip-rule="evenodd" d="M148.946 104.976L147.895 103.386C147.895 103.386 147.792 100.925 145.794 102.515C145.794 102.515 144.875 103.241 145.386 105.888L148.815 111.722L147.626 157.426C147.626 157.426 148.137 160.073 149.734 160.619C149.734 160.619 150.681 160.619 151.324 159.202L151.835 119.153L175.337 160.439L180.466 159.022L182.055 99.5429C182.055 99.5429 181.917 95.444 177.445 97.2205L176.394 97.7665L175.344 151.771L151.061 108.715L151.192 103.386C151.192 103.386 150.681 101.105 149.229 102.515L148.946 104.976Z" fill="white"/>
<path fill-rule="evenodd" clip-rule="evenodd" d="M187.129 89.8037C187.267 89.3958 190.447 86.2093 192.417 91.193L189.949 156.492C189.949 156.492 189.949 159.879 187.578 159.672L184.696 158.49L186.618 93.1975C186.618 93.1906 186.991 90.2115 187.129 89.8037Z" fill="white"/>
<path fill-rule="evenodd" clip-rule="evenodd" d="M190.15 85.9536L194.387 81.5436C194.387 81.5436 194.518 79.3386 192.79 79.7464L191.871 80.5621L189.873 84.7232L190.15 85.9536Z" fill="white"/>
<path d="M43.0442 149.947C43.2585 149.573 43.6456 149.352 43.7631 148.951C43.7907 148.854 43.846 148.654 43.9082 148.447C43.929 148.371 43.9843 148.191 44.1156 148.039C44.3022 148.239 44.475 148.412 44.6409 148.585C45.1317 148.792 45.7331 149.02 46.3482 149.145C47.0671 149.29 47.6063 149.29 48.1454 149.29C48.8297 149.11 49.984 148.702 50.3573 147.914C50.6684 147.444 50.7928 146.829 51.0209 146.221C51.2282 145.73 51.4356 145.233 51.954 144.804C52.8388 145.198 53.8894 145.841 54.8157 146.027C55.3272 146.131 55.7696 146.11 56.1359 145.868C56.6128 145.64 57.622 144.88 57.705 144.472C57.7257 144.368 57.7464 144.265 57.7879 144.057C57.8294 143.85 57.9123 143.442 57.9538 143.235C57.9953 143.028 58.016 142.924 58.0368 142.82C58.1612 142.198 58.6174 141.548 58.7418 140.926C59.1634 139.938 59.4123 138.7 59.6197 137.671C59.7026 137.263 59.5782 136.807 59.6197 136.599C59.8892 135.258 60.1519 134.837 60.4007 134.138L60.4215 134.035C61.085 132.88 61.7763 131.761 62.1357 131.014C62.267 130.731 63.6287 126.825 61.2509 125.588C60.4353 125.132 60.6496 125.146 59.8201 125.118C57.9953 124.924 56.5645 127.081 56.523 127.288C56.4815 127.496 56.4815 127.496 56.4608 127.6C56.2327 128.733 58.2027 130.641 58.6174 129.646C58.8248 129.155 58.7211 128.664 59.0114 128.229C60.6012 125.809 61.3892 130.717 58.5344 134.021C57.9193 133.357 57.47 132.41 56.5368 132.217C56.4331 132.196 56.4331 132.196 56.2258 132.155C55.4032 131.989 53.8549 132.21 53.2743 132.417C52.5761 132.701 50.855 134.291 50.6131 134.989C50.5094 135.5 50.4195 136.454 50.4817 136.682C50.6476 137.463 51.3458 137.719 51.4425 138.272C51.4218 138.376 51.3388 138.79 51.2559 139.198C51.0209 140.332 50.772 140.498 50.461 141.507C49.9841 142.806 49.4449 144.41 48.8988 145.481C48.491 145.931 48.2767 146.428 47.8689 146.345C47.7652 146.325 47.7652 146.325 47.6616 146.304C46.839 146.138 46.5902 145.226 46.0787 144.59C45.9819 144.037 45.7745 143.456 45.816 142.71C45.6155 142.129 45.5326 141.472 45.5533 140.829C45.5741 140.726 45.6363 140.422 45.657 140.318C45.6778 140.214 45.6778 140.214 45.6778 140.214C45.7607 139.806 45.7469 138.832 45.7883 138.624C45.9335 137.906 45.8506 137.242 45.9819 136.627C46.1063 136.005 46.3552 135.307 46.4865 134.685C46.7146 133.551 46.5349 132.334 46.7837 131.097C46.8459 130.786 46.9496 130.275 47.0325 129.86C47.2192 128.934 47.4127 128.007 47.5579 127.282C47.6063 126.818 47.7583 125.553 48.0417 124.911C48.1869 124.192 48.3528 123.369 48.4979 122.643C48.809 122.173 48.9127 121.655 49.0163 121.144C49.0993 120.729 49.1408 120.528 49.0025 120.176C49.0025 119.637 48.6154 119.457 48.3044 119.388C47.786 119.284 47.0256 119.346 46.7353 119.713C46.3413 120.058 46.051 120.964 45.6778 121.752C45.2838 122.637 44.8898 123.521 44.6824 124.012C44.5995 124.427 44.558 124.634 44.4958 124.938C44.475 125.042 44.4543 125.146 44.4336 125.249C44.0188 125.699 43.1825 128.747 43.1202 129.058C43.0373 129.473 42.7263 129.943 42.664 130.254C42.3945 131.595 42.4083 133.102 42.1594 134.332C42.0765 134.747 41.8691 135.237 41.7862 135.652C41.5581 136.095 41.5235 139.35 41.6065 141.901C41.3991 141.832 41.2056 141.776 41.0258 141.721C38.8139 141.085 36.996 142.094 35.7311 143.477C35.2542 143.995 34.798 144.839 34.563 145.647C34.2726 146.65 34.2934 147.749 34.4869 148.564C34.4731 148.993 34.4593 149.428 34.5284 149.56C34.9846 150.997 36.4085 152.49 38.1227 152.981C38.9245 153.209 39.9199 153.168 40.9291 152.698C41.8208 152.318 42.4636 151.198 43.0442 149.947ZM55.2511 143.339C53.3918 142.958 53.5853 140.961 53.924 139.316C54.3387 138.859 55.0576 139.005 55.659 138.7C55.7834 138.618 56.6059 138.251 56.9792 138.002L57.1451 138.251C56.7649 140.104 56.1636 142.018 55.2511 143.339ZM53.0254 135.804C53.2328 134.774 54.477 133.952 55.5069 134.159C55.6106 134.18 55.7143 134.201 55.811 134.221C56.2258 134.304 57.0898 135.334 56.9861 135.853C56.841 136.572 55.5415 137.166 54.6083 136.979C54.5115 136.959 54.5115 136.959 54.4009 136.938C53.8825 136.834 53.4125 136.523 53.0254 136.337C52.9632 136.115 53.0116 135.908 53.0254 135.804ZM39.0282 149.884L38.8278 149.829C38.1227 149.629 37.39 148.765 37.3002 148.308C37.2034 147.514 37.2311 146.649 36.9684 146.034C37.1274 145.862 37.3417 145.488 37.4592 145.08C37.4868 144.984 37.5145 144.88 37.5767 144.68C38.2817 144.12 39.3462 143.442 40.3554 143.733C40.5558 143.788 40.86 143.878 41.0328 144.037C41.2954 144.652 41.565 145.606 41.3784 146.636C41.2332 147.14 40.6042 148.592 40.3208 149.166C40.0098 149.511 39.2287 149.94 39.0282 149.884Z" fill="white"/>
<path d="M60.5874 147.223C59.8271 147.5 59.4054 148.025 58.7833 148.426C58.1612 148.827 57.47 149.166 56.7857 149.449C56.0945 149.788 55.4033 150.126 54.719 150.403C54.0346 150.679 53.2743 151.136 52.5209 151.239C52.0439 151.405 51.567 151.329 51.0209 151.433C50.4749 151.599 49.7906 151.758 49.1063 151.917C48.2837 152.013 47.5372 152.11 46.8529 152.214C46.369 152.38 45.7538 152.663 45.2009 152.822C44.6548 153.05 43.9636 153.202 43.4866 153.368C43.0719 153.596 42.7885 153.942 42.4429 154.177C42.0973 154.467 41.6826 154.633 41.4061 154.744C41.1987 154.979 40.9153 155.269 40.6319 155.559C40.1411 156.14 39.7817 156.727 39.4914 157.439C39.4084 157.909 39.2633 158.207 39.2564 158.566C39.2495 158.926 39.3739 159.34 39.5674 159.707C39.8301 160.073 40.3554 160.626 40.8254 160.999C41.3577 161.372 42.0973 161.69 42.5673 161.822C42.8369 161.884 43.1065 161.891 43.2447 161.898C44.7377 161.939 45.6502 161.068 46.217 160.253C46.5004 159.962 46.6455 159.43 46.6593 159.071C46.6663 158.711 46.5418 158.352 45.8644 158.331C45.1801 158.31 44.8898 158.96 44.2746 159.244C43.8599 159.527 43.2447 159.631 42.7678 159.617C42.2217 159.603 41.8208 159.472 41.6273 158.932C41.5651 158.815 41.572 158.635 41.572 158.511C41.5858 157.972 41.9452 157.384 42.1526 157.032C42.5811 156.451 43.4106 155.933 44.1018 155.414C45.0004 155.02 45.9543 154.751 46.7838 154.474C48.2284 153.976 49.7284 153.658 51.2352 153.285C51.7813 153.182 52.2582 153.133 52.8112 152.974C53.6337 152.76 54.5323 152.304 55.2858 151.91C56.1152 151.516 57.0138 151.059 57.705 150.665C58.4654 150.209 59.357 149.878 59.9169 149.352C60.6081 148.896 61.2371 148.315 61.8039 147.555C61.8039 147.493 61.8731 147.5 61.8731 147.437C62.1565 146.967 62.3708 146.553 62.3915 146.02C62.2602 145.841 62.0597 145.834 61.9215 145.827C61.2372 145.806 60.8086 146.691 60.5874 147.223Z" fill="white"/>
<path d="M147.743 41.5704C147.937 41.4598 148.144 41.3907 148.31 41.3354C148.504 41.2248 148.628 41.0451 148.828 40.9345C148.911 40.9068 149.036 40.8653 149.119 40.8377C149.202 40.8101 149.285 40.7824 149.395 40.6995C149.506 40.6165 149.644 40.4783 149.796 40.3815C149.934 40.2432 150.142 40.1741 150.294 40.0774C150.584 39.8423 150.895 39.6488 151.185 39.4138C151.448 39.2341 151.324 36.8977 149.72 38.4668C149.72 38.4668 149.153 38.9783 148.787 39.1442C148.704 39.1719 148.663 39.1857 148.58 39.2133C148.455 39.2548 148.331 39.2963 148.206 39.3378C148.013 39.4484 147.861 39.5451 147.667 39.6557C147.308 39.8216 146.893 39.9598 146.471 40.0912C145.552 40.3953 144.543 40.6787 143.783 40.8861C143.437 40.9552 143.147 41.052 142.801 41.1211C142.414 41.204 141.985 41.2939 141.55 41.3907C140.43 41.6188 139.442 41.7155 138.363 41.7916C137.921 41.8469 137.465 41.992 137.009 42.0059C136.594 42.0059 136.179 42.0059 135.737 42.0542C134.382 42.2685 133.117 42.2271 131.831 42.3722C130.947 42.4828 130.076 42.4897 129.198 42.6349C128.265 42.7524 127.394 42.9044 126.523 42.9183C125.486 42.9805 124.276 43.1049 123.239 43.3054C123.018 43.333 122.797 43.3606 122.562 43.3468C120.606 43.4367 118.539 44.0242 116.438 44.4873C116.231 44.5565 115.996 44.5426 115.747 44.6256C115.622 44.6671 115.498 44.7085 115.415 44.7362C115.29 44.7776 115.208 44.8053 115.111 44.7915C114.42 44.9228 113.735 45.1025 113.072 45.3237C111.779 45.7454 110.238 46.2569 108.966 46.8582C108.565 47.0379 108.15 47.3144 107.742 47.4872C107.148 47.7775 106.643 48.2199 106.159 48.5655C105.98 48.7176 105.731 48.8005 105.593 48.9388C105.482 49.0217 105.399 49.1876 105.254 49.3259C105.185 49.395 105.157 49.4503 105.13 49.5056C104.95 49.6577 104.839 49.8789 104.66 50.0309C104.507 50.1277 104.355 50.2245 104.259 50.3489C104.134 50.5286 104.024 50.7498 103.913 50.971C103.789 51.1507 103.623 51.3442 103.581 51.6345C103.457 51.8143 103.443 52.0493 103.346 52.3119C103.277 52.5193 103.166 52.7405 103.104 52.9893C103.09 53.2244 103.035 53.4732 103.035 53.7497C103.021 53.8464 102.98 53.9985 102.98 54.1368C102.994 54.3165 103.008 54.4962 103.008 54.6344C103.008 54.7727 103.021 54.8142 103.077 54.9801C103.104 55.2012 103.146 55.4639 103.215 55.6713C103.298 55.9201 103.408 56.1136 103.533 56.3556C103.837 56.715 103.989 57.1712 104.21 57.5652C104.224 57.6067 104.266 57.5929 104.279 57.6343C104.348 57.7035 104.39 57.8279 104.459 57.897L104.556 57.9108C104.819 58.1458 105.054 58.2979 105.302 58.4914C105.413 58.5467 105.496 58.6573 105.606 58.7126C105.703 58.7265 105.855 58.7679 105.966 58.8232C106.284 58.9476 106.699 59.2241 107.058 59.2034C107.39 59.231 107.888 59.2103 108.136 59.1274C108.178 59.1135 108.178 59.1135 108.219 59.0997C108.385 59.0444 108.523 58.9062 108.717 58.7956C109.284 58.4223 109.733 57.9523 109.733 57.3993C109.705 57.3164 109.678 57.2334 109.664 57.192C109.526 56.7772 109.318 56.5699 109.083 56.4109C108.821 56.1759 108.42 56.0791 108.157 56.1137C108.06 56.0998 107.977 56.1275 107.894 56.1551C107.563 56.2657 107.341 56.5699 107.134 56.7772C106.927 56.9846 106.823 57.2472 106.588 57.3717C106.505 57.3993 106.284 57.427 106.063 57.4546C105.883 57.4684 105.703 57.4823 105.565 57.4823C105.427 57.4823 105.289 57.344 105.164 57.2473C104.998 57.1643 104.846 57.1228 104.777 57.0537C104.708 56.9846 104.666 56.8602 104.597 56.791C104.431 56.5699 104.252 56.3003 104.141 56.1067C104.044 55.8164 103.989 55.5123 103.948 55.2496C103.851 54.9593 103.823 54.7312 103.823 54.4616C103.809 54.1437 103.892 53.8395 103.996 53.5769C104.065 53.3695 104.065 53.093 104.148 52.9271C104.245 52.6645 104.521 52.388 104.68 52.153C104.722 52.1391 104.708 52.0977 104.736 52.0424C104.86 51.8626 105.026 51.6691 105.199 51.4756C105.282 51.3097 105.351 51.1023 105.448 50.9779C105.676 50.6737 105.89 50.3696 106.173 50.0931C106.408 49.8305 106.699 49.5955 106.989 49.3604C107.328 49.2498 107.59 48.9319 107.894 48.7383C108.226 48.4895 108.648 48.3513 109.049 48.1715C109.284 48.0471 109.47 47.8951 109.657 47.7845C109.892 47.66 110.141 47.5771 110.376 47.4527C110.818 47.2591 111.344 47.0379 111.848 46.879C112.235 46.796 112.595 46.7684 112.975 46.6509C113.141 46.5956 113.251 46.5126 113.417 46.4573C113.459 46.4435 113.5 46.4297 113.542 46.4158C113.873 46.3052 114.274 46.2638 114.661 46.1877C115.422 45.9804 116.161 45.8283 116.908 45.7246C117.309 45.6831 117.627 45.5311 118.021 45.455C118.366 45.3859 118.781 45.3859 119.161 45.2615C119.203 45.2477 119.244 45.2339 119.286 45.22C119.369 45.1924 119.452 45.1647 119.535 45.1371C119.963 45.0403 120.475 45.061 120.917 45.0058C121.166 44.9228 121.387 44.8952 121.65 44.8537C122.769 44.7569 124.007 44.5841 125.127 44.4943C126.025 44.432 126.931 44.3629 127.843 44.3422C128.742 44.28 129.633 44.3076 130.518 44.197C130.96 44.1417 131.43 44.038 131.88 43.9827C133.248 43.803 134.652 43.8514 136.02 43.6786C136.463 43.6233 136.919 43.6164 137.368 43.5611C137.589 43.5335 137.81 43.5058 138.032 43.4782C138.267 43.492 138.502 43.5058 138.723 43.4782C139.4 43.4367 140.105 43.3468 140.79 43.3054C141.011 43.2777 141.246 43.2915 141.467 43.2639C141.771 43.2086 142.068 43.1118 142.331 43.0703C142.635 43.015 142.912 43.015 143.174 42.9805C143.478 42.9252 143.769 42.8284 144.038 42.7869C144.342 42.7316 144.619 42.7316 144.882 42.6902C145.186 42.6349 145.531 42.5657 145.822 42.4759C146.112 42.3791 146.388 42.2409 146.665 42.1026C147.017 41.9022 147.377 41.7363 147.743 41.5704Z" fill="white"/>
<path d="M114.945 43.5818C118.201 42.1026 118.823 38.2249 118.125 34.3817C114.689 35.4116 113.404 40.3746 114.821 43.3676L114.945 43.5818Z" fill="white"/>
<path d="M117.399 47.2936C117.399 47.2936 121.055 53.3833 124.753 51.6483C123.163 48.7729 120.876 46.6577 117.399 47.2936Z" fill="white"/>
<path d="M122.928 42.0819C126.965 40.6234 128.375 37.1811 128.894 33.1444C125.375 34.5061 121.961 37.9622 122.839 41.7501L122.928 42.0819Z" fill="white"/>
<path d="M126.398 46.6094C125.942 50.3972 131.237 51.2958 133.857 51.3373C133.117 47.3628 130.02 45.9665 126.398 46.6094Z" fill="white"/>
<path d="M133.677 40.7202C137.257 39.7041 137.555 34.5683 136.808 31.4786C133.497 32.9854 130.788 37.8724 133.477 40.7893L133.677 40.7202Z" fill="white"/>
<path d="M135.64 45.9596L135.412 46.1117C136.158 49.2014 141.75 50.2175 144.743 48.9457C143.133 46.0149 138.605 44.515 135.64 45.9596Z" fill="white"/>
<path d="M143.223 39.6972C147.135 37.5406 146.492 34.0706 145.829 30.4279C142.089 32.55 141.17 36.3033 142.912 39.9322L143.223 39.6972Z" fill="white"/>
<path d="M146.693 44.8399L146.223 45.3583C148.407 47.4665 153.736 47.2039 155.229 44.598C152.879 42.5243 148.663 42.863 146.693 44.8399Z" fill="white"/>
<path d="M157.635 29.8127C154.794 31.0016 151.745 35.2665 152.616 38.3424L153.142 38.1143C156.688 36.9392 157.98 32.9785 157.635 29.8127Z" fill="white"/>
<path fill-rule="evenodd" clip-rule="evenodd" d="M12.1053 130.855C12.1053 131.159 11.8634 131.401 11.5593 131.401C11.2551 131.401 11.0132 131.152 11.0132 130.855C11.0132 130.558 11.2551 130.302 11.5593 130.302C11.8634 130.309 12.1053 130.558 12.1053 130.855Z" fill="white"/>
<path fill-rule="evenodd" clip-rule="evenodd" d="M26.2614 118.24C26.2614 118.545 26.0126 118.787 25.7154 118.787C25.4112 118.787 25.1693 118.538 25.1693 118.24C25.1693 117.936 25.4182 117.694 25.7154 117.694C26.0126 117.694 26.2614 117.943 26.2614 118.24Z" fill="white"/>
<path fill-rule="evenodd" clip-rule="evenodd" d="M26.7107 167.96L27.319 167.255L27.9411 167.303L28.6392 168.527L27.319 169.149L26.7107 167.96Z" fill="white"/>
<path fill-rule="evenodd" clip-rule="evenodd" d="M35.8417 162.907L35.2542 161.794L36.0767 161.573L36.3532 162.064L35.8417 162.907Z" fill="white"/>
<path fill-rule="evenodd" clip-rule="evenodd" d="M33.8855 154.329C33.8855 154.571 33.6851 154.764 33.4432 154.764C33.2012 154.764 33.0077 154.571 33.0077 154.329C33.0077 154.087 33.2012 153.894 33.4432 153.894C33.6851 153.894 33.8855 154.087 33.8855 154.329Z" fill="white"/>
<path fill-rule="evenodd" clip-rule="evenodd" d="M93.0609 169.909C93.0609 170.123 92.8881 170.289 92.6739 170.289C92.4596 170.289 92.2937 170.116 92.2937 169.909C92.2937 169.695 92.4665 169.522 92.6739 169.522C92.8881 169.522 93.0609 169.695 93.0609 169.909Z" fill="white"/>
<path fill-rule="evenodd" clip-rule="evenodd" d="M199.599 157.73L199.502 158.345L199.903 158.552L200.165 158.165L199.599 157.73Z" fill="white"/>
<path fill-rule="evenodd" clip-rule="evenodd" d="M212.898 102.225C213.063 102.28 213.644 102.792 213.644 102.792L214.156 102.391L213.997 101.824L212.898 102.225Z" fill="white"/>
<path fill-rule="evenodd" clip-rule="evenodd" d="M208.066 83.4306L209.386 83.0781L209.338 82.2832L208.066 82.1104L207.278 82.7256L208.066 83.4306Z" fill="white"/>
<path fill-rule="evenodd" clip-rule="evenodd" d="M186.728 76.4907V76.1797L186.113 76.0967L186.134 76.394L186.728 76.4907Z" fill="white"/>
<path fill-rule="evenodd" clip-rule="evenodd" d="M212.725 72.537L213.375 72.7098L213.554 71.6799L213.34 71.6592L212.725 71.9218V72.537Z" fill="white"/>
<path fill-rule="evenodd" clip-rule="evenodd" d="M216.983 77.1889L216.886 76.5737L216.243 76.5599L216.236 76.7534L216.983 77.1889Z" fill="white"/>
<path fill-rule="evenodd" clip-rule="evenodd" d="M163.102 67.0902L163.489 67.6639L163.766 67.5326L163.869 66.8552L163.102 67.0902Z" fill="white"/>
<path fill-rule="evenodd" clip-rule="evenodd" d="M158.533 48.4272L159.059 47.9434L158.602 47.0517H158.105L158.533 48.4272Z" fill="white"/>
<path fill-rule="evenodd" clip-rule="evenodd" d="M170.215 43.7339C170.291 43.7201 170.74 44.4389 170.74 44.4389L170.941 43.8238C170.941 43.8168 170.09 43.7546 170.215 43.7339Z" fill="white"/>
<path fill-rule="evenodd" clip-rule="evenodd" d="M182.864 43.9067L182.954 43.4297L183.217 43.8168L182.864 43.9067Z" fill="white"/>
<path fill-rule="evenodd" clip-rule="evenodd" d="M131.175 40.3469L131.486 40.0427L131.175 39.0336L130.601 39.3792L130.573 40.0842L131.175 40.3469Z" fill="white"/>
<path fill-rule="evenodd" clip-rule="evenodd" d="M92.1277 24.7323L91.7959 24.0756L91.1738 23.9719L91.3604 24.6217L92.1277 24.7323Z" fill="white"/>
<path fill-rule="evenodd" clip-rule="evenodd" d="M55.9286 61.3116C55.9286 61.5812 55.7074 61.8024 55.4378 61.8024C55.1613 61.8024 54.947 61.5812 54.947 61.3116C54.947 61.042 55.1682 60.8209 55.4378 60.8209C55.7074 60.8209 55.9286 61.042 55.9286 61.3116Z" fill="white"/>
<path fill-rule="evenodd" clip-rule="evenodd" d="M54.4494 55.3326C54.4494 55.5399 54.2766 55.7127 54.0623 55.7127C53.8549 55.7127 53.6821 55.5399 53.6821 55.3326C53.6821 55.1183 53.8549 54.9455 54.0623 54.9455C54.2766 54.9524 54.4494 55.1252 54.4494 55.3326Z" fill="white"/>
<path fill-rule="evenodd" clip-rule="evenodd" d="M53.1291 52.5884C53.1291 52.8926 52.8803 53.1345 52.583 53.1345C52.2789 53.1345 52.037 52.8926 52.037 52.5884C52.037 52.2843 52.2789 52.0424 52.583 52.0424C52.8872 52.0424 53.1291 52.2912 53.1291 52.5884Z" fill="white"/>
<path fill-rule="evenodd" clip-rule="evenodd" d="M49.7215 93.2183L49.9841 93.2667L50.3297 92.9556L50.1224 92.4095L49.6869 92.4856L49.7215 93.2183Z" fill="white"/>
<path fill-rule="evenodd" clip-rule="evenodd" d="M141.709 96.7781C141.709 96.7781 142.393 96.1283 142.988 96.3426C143.278 96.4463 143.077 96.9163 143.077 96.9163L142.69 97.2204L142.048 97.2412L141.709 96.7781Z" fill="white"/>
<path d="M36.5399 121.648C36.2496 121.814 35.9593 121.994 35.6275 121.994C35.6137 121.994 35.6068 121.994 35.5929 121.994C35.5653 121.994 35.5376 121.994 35.51 121.994C34.9501 121.994 34.4455 122.222 33.9755 122.554C33.6368 122.789 33.2843 122.879 32.9179 122.879C32.7175 122.879 32.517 122.851 32.3166 122.809C31.3005 122.602 30.7337 121.869 30.6438 120.625C30.5816 119.803 30.5609 118.98 30.5609 118.151C30.5609 117.369 30.5816 116.588 30.5954 115.794C30.5678 115.234 30.5678 114.667 30.5678 114.1C30.5678 113.589 30.5747 113.077 30.5747 112.566C30.5747 111.784 30.5609 110.996 30.5125 110.208C30.4987 110.056 30.4987 109.904 30.4987 109.752C30.4987 108.978 30.6023 108.19 30.6023 107.402C30.6023 107.222 30.5954 107.043 30.5816 106.856C30.5401 106.317 30.5263 105.778 30.5263 105.239C30.5263 103.842 30.63 102.446 30.63 101.05C30.63 100.953 30.63 100.849 30.63 100.746C30.6023 98.1121 30.6438 95.4855 30.5056 92.845C30.4503 91.7391 30.3881 90.6331 30.3881 89.5134C30.3881 88.5111 30.4364 87.5019 30.5747 86.5065C30.5954 86.3268 30.6093 86.1471 30.6093 85.9674C30.6093 85.2693 30.4641 84.578 30.4641 83.8868C30.4641 83.244 30.4641 82.5943 30.4641 81.9445C30.4641 80.9906 30.4641 80.0367 30.4641 79.0898C30.4641 78.9308 30.4641 78.7718 30.4641 78.6128C30.4641 77.811 30.4434 77.0161 30.2498 76.235C30.1876 76 30.1669 75.7581 30.1669 75.5162C30.1669 75.2811 30.1807 75.0392 30.1945 74.7973C30.2913 71.6799 30.471 68.5625 31.5147 65.6525C32.0885 64.0557 33.0147 62.7424 34.2589 61.7885C34.3695 61.7056 34.4939 61.6088 34.6252 61.595C36.0837 61.4222 37.3279 60.5098 38.662 59.9223C39.3946 59.5766 40.0997 59.39 40.8116 59.39C41.2333 59.39 41.6549 59.4591 42.0835 59.5974C42.7816 59.8255 43.5074 59.8808 44.2055 60.1434C45.5188 60.6342 46.8253 61.3669 48.0764 62.4037C49.1201 63.2678 50.1915 64.0834 51.2352 64.9405C53.696 66.952 55.7143 69.4956 57.0691 72.696C57.5322 73.7881 57.9884 75.0116 58.0299 76.2005C58.0507 76.8018 58.0714 77.417 58.0714 78.0253C58.0714 80.1612 57.8571 82.2763 56.9032 84.2255C56.447 85.1518 56.0185 86.1056 55.5346 87.0111C55.0922 87.8337 54.4563 88.4696 53.7582 88.9189C52.2721 89.8659 51.0624 91.2829 49.6178 92.2713C47.9105 93.4395 46.0787 94.3173 44.2677 94.5316C43.0788 94.6768 41.8969 95.0016 40.6941 95.0016C40.6596 95.0016 40.625 95.0016 40.5905 95.0016C40.5835 95.0016 40.5835 95.0016 40.5766 95.0016C40.1412 95.0016 39.8854 95.4025 39.837 95.997C39.8301 96.1007 39.8232 96.2044 39.8232 96.308C39.8232 96.4048 39.8232 96.5016 39.837 96.5984C39.8854 97.2274 39.9061 97.8564 39.9061 98.4854C39.9061 100.448 39.7126 102.398 39.6366 104.354C39.6158 104.941 39.602 105.529 39.602 106.123C39.602 107.292 39.6435 108.46 39.7264 109.621C39.7333 109.718 39.7333 109.821 39.7333 109.911C39.7333 110.499 39.6227 111.059 39.5813 111.639C39.4361 113.609 39.2702 115.579 39.2702 117.549C39.2702 118.012 39.2771 118.469 39.2979 118.932C39.2979 118.98 39.2979 119.022 39.2979 119.063C39.2979 120.217 38.6827 121.026 37.7772 121.171C37.3279 121.24 36.9339 121.42 36.5399 121.648ZM38.8486 69.7514C38.8486 70.7744 39.1458 71.7559 39.208 72.772C39.3394 74.7213 39.678 76.6498 39.6919 78.6059C39.6988 80.3271 39.996 82.0344 39.996 83.7555C39.996 83.9145 39.996 84.0735 39.9891 84.2324C39.9891 84.6679 39.9684 85.1103 39.9684 85.5527C39.9684 85.8361 39.9753 86.1126 40.0029 86.389C40.0513 86.9697 40.3693 87.3429 40.7633 87.3429C40.8877 87.3429 41.019 87.3084 41.1573 87.2254C42.6918 86.3199 44.2885 85.4006 45.0626 83.6034C45.9474 81.5505 46.9566 79.5183 47.1087 77.182C47.1294 76.871 47.1916 76.5323 47.3229 76.2558C47.7238 75.3917 47.6824 74.4793 47.7169 73.56C47.7169 73.4978 47.7238 73.4425 47.7238 73.3803C47.7238 71.9909 47.081 70.9956 46.0027 70.2975C44.1848 69.1155 42.1595 68.5901 40.0859 68.2998C39.9822 68.286 39.8854 68.2791 39.7956 68.2791C39.1527 68.2791 38.9246 68.6593 38.8762 69.4542C38.8486 69.544 38.8486 69.6477 38.8486 69.7514Z" fill="white"/>
<path d="M71.6331 101.796C71.5156 101.796 71.3774 101.817 71.2253 101.852C69.4558 102.239 67.707 102.812 65.9098 102.958C65.2463 103.013 64.8937 103.642 64.8454 104.686C64.6725 108.847 64.2993 112.966 63.6979 117.045C63.6357 117.473 63.5597 117.895 63.4145 118.268C63.1657 118.897 62.827 119.111 62.3362 119.111C62.2464 119.111 62.1496 119.104 62.0459 119.091C60.6704 118.911 59.7372 117.736 58.887 116.554C57.7673 115.019 56.7788 113.312 56.0599 111.384C55.8388 110.782 55.6383 110.181 55.6383 109.51C55.6383 109.386 55.6452 109.261 55.659 109.137C55.6452 108.992 55.6383 108.847 55.6383 108.709C55.6383 108.197 55.7489 107.706 56.0047 107.298C56.841 105.978 57.2074 104.43 57.3871 102.778C57.9332 97.9117 59.0598 93.239 60.0345 88.5111C60.7188 85.2071 61.0782 81.7993 61.8455 78.5161C62.5436 75.5231 62.9583 72.4472 63.5251 69.4265C64.168 65.9013 65.0665 62.5282 66.3384 59.3485C66.8015 58.2011 67.4996 57.6965 68.1978 57.6965C69.0065 57.6965 69.8152 58.3739 70.2507 59.5283C70.6516 60.5927 70.9626 61.6987 71.094 62.9291C71.4327 66.1432 71.8889 69.3228 72.6147 72.4333C73.1123 74.4517 73.4303 76.5392 73.693 78.6405C74.0662 81.5505 74.7989 84.3569 75.3173 87.2254C75.9532 90.723 76.5684 94.2344 76.9832 97.8011C77.4601 101.886 78.6628 105.729 79.3955 109.732C79.4854 110.236 79.6098 110.734 79.6651 111.245C79.6858 111.397 79.6927 111.536 79.6927 111.667C79.6927 112.745 79.1743 113.374 78.3656 113.374C78.2274 113.374 78.0753 113.354 77.9163 113.319C77.0799 113.112 76.368 112.552 75.5869 112.206C75.1583 112.019 74.9095 111.543 74.7713 110.969C74.5432 110.063 74.2528 109.179 74.08 108.252C73.7068 106.351 73.0916 104.575 72.5386 102.771C72.2898 102.045 72.0686 101.796 71.6331 101.796ZM65.8614 96.861C65.8614 97.338 66.1656 97.6283 66.7738 97.6283C66.7808 97.6283 66.7808 97.6283 66.7877 97.6283C67.9558 97.2965 69.3383 96.9578 70.7 96.5085C71.1493 96.3564 71.3497 96.0108 71.3497 95.4786C71.3497 95.3127 71.329 95.133 71.2944 94.9325C70.9212 92.8865 70.5686 90.8198 70.1124 88.8083C69.677 86.866 69.3175 84.9098 69.0963 82.8984C68.889 81.0183 68.654 79.1451 68.4328 77.265C68.3982 76.9539 68.3567 76.6429 68.0803 76.6359H68.0733C67.8038 76.6359 67.7554 76.9332 67.7139 77.2442C67.5757 78.2603 67.389 79.2695 67.3545 80.3132C67.2646 82.9952 66.9881 85.6494 66.7393 88.3037C66.4766 91.0893 66.3315 93.8957 65.8822 96.6398C65.8684 96.7159 65.8614 96.785 65.8614 96.861Z" fill="white"/>
<path d="M107.597 74.4241C108.081 76.947 107.998 79.5183 108.206 82.0551C108.226 82.3178 108.233 82.5804 108.233 82.85C108.233 83.2993 108.212 83.7486 108.212 84.1979C108.212 84.2532 108.212 84.3016 108.212 84.3569C108.212 86.8245 107.687 89.1678 107.093 91.5179C106.726 92.9833 106.401 94.4763 105.869 95.8588C105.261 97.4417 104.487 98.9278 103.436 100.193C101.867 102.211 100.111 103.787 98.2519 105.183C97.9962 105.377 97.7543 105.584 97.54 105.868C97.1736 106.345 96.7382 106.697 96.2682 106.994C94.2429 109.006 92.4872 108.971 89.8882 109.718C89.3974 109.842 88.9136 109.897 88.4297 109.897C87.5519 109.897 86.6879 109.697 85.8377 109.289C85.2432 109.006 84.7939 108.584 84.5174 107.927C84.1718 107.098 83.9644 106.234 83.9644 105.28C83.9644 105.273 83.9644 105.266 83.9644 105.259C83.9644 105.211 83.9644 105.169 83.9644 105.121C83.9644 103.248 83.8331 101.375 83.6534 99.5084C83.5152 98.1052 83.4253 96.6813 83.4184 95.2505C83.4115 92.4372 83.3838 89.6171 83.2801 86.8038C83.2663 86.4789 83.2594 86.154 83.2594 85.8292C83.2594 84.4122 83.3631 82.9883 83.4668 81.5782C83.7847 77.417 83.7986 73.249 83.9091 69.0809C83.9506 67.4842 84.0059 65.8806 84.1856 64.2908C84.2617 63.5926 84.3031 62.8945 84.3031 62.1895C84.3031 61.8231 84.2893 61.4568 84.2686 61.0904C84.2478 60.8209 84.2409 60.5582 84.2409 60.2955C84.2409 59.0237 84.4483 57.8002 85.0151 56.6597C85.5335 55.616 86.2869 54.9731 87.2546 54.669C87.3722 54.6344 87.4897 54.6137 87.6141 54.6137C87.8767 54.6137 88.1394 54.7036 88.3813 54.8902C88.6509 55.0976 88.9274 55.1667 89.2315 55.1667C89.3767 55.1667 89.5218 55.1529 89.6739 55.1252C89.9711 55.0699 90.2614 55.0561 90.5518 55.0561C91.4227 55.0561 92.266 55.2358 93.1093 55.3326C93.8074 55.4086 94.4986 55.5952 95.1829 55.7888C99.3372 56.9431 102.385 60.0744 104.742 64.8299C106.263 67.7953 106.961 71.0786 107.597 74.4241ZM102.98 81.0459C102.98 80.8109 102.98 80.5759 102.973 80.3409C102.938 78.2396 102.835 76.1383 102.565 74.0715C102.144 70.9127 101.362 67.9612 99.6551 65.535C98.1759 63.4268 96.3787 62.0858 94.2705 61.4844C93.2199 61.1803 92.1416 61.0697 91.0633 60.966C90.9941 60.9591 90.925 60.9591 90.8697 60.9591C90.3306 60.9591 90.1094 61.2149 90.1094 61.8577C90.1094 61.9821 90.1163 62.1273 90.137 62.2862C90.22 63.0881 90.2615 63.8968 90.2615 64.7055C90.2615 65.3276 90.2338 65.9428 90.1716 66.5511C90.0886 67.2561 90.0679 67.9612 90.0679 68.6662C90.0679 69.7376 90.1301 70.809 90.1439 71.8804C90.1647 73.2006 90.2684 74.5277 90.2684 75.8549C90.2684 76.0277 90.2684 76.1936 90.2615 76.3595C90.2407 77.1336 90.2407 77.9147 90.2407 78.6889C90.2407 79.7326 90.2545 80.7695 90.2615 81.8132C90.2684 83.0297 90.3167 84.2463 90.3167 85.4628C90.3167 85.8154 90.3098 86.1679 90.3029 86.5135C90.2753 87.2946 90.2684 88.0687 90.2684 88.8498C90.2684 90.1009 90.296 91.352 90.3375 92.6031C90.372 93.5363 90.3928 94.4763 90.3928 95.4095C90.3928 96.0039 90.379 96.5984 90.3651 97.1928C90.3582 97.4278 90.3513 97.6698 90.3513 97.9048C90.3513 98.7342 90.3997 99.5637 90.4481 100.393C90.4826 100.925 90.7315 101.285 91.008 101.285C91.0633 101.285 91.1186 101.271 91.1808 101.236C91.9273 100.822 92.736 100.642 93.4549 100.144C94.9341 99.1144 96.358 97.9808 97.7474 96.7366C99.6413 95.0224 100.927 92.7206 101.832 89.9972C102.261 88.7116 102.358 87.3222 102.586 85.9674C102.849 84.3361 102.98 82.698 102.98 81.0459Z" fill="white"/>
<path d="M174.922 82.3799C174.805 82.3799 174.673 82.3938 174.514 82.4145C172.758 82.6426 171.024 82.9813 169.247 83.0712C168.59 83.0988 168.238 83.4721 168.19 84.0942C168.017 86.5618 167.65 89.0087 167.049 91.428C166.987 91.6838 166.911 91.9326 166.766 92.1538C166.517 92.527 166.185 92.6584 165.694 92.6584C165.604 92.6584 165.508 92.6515 165.404 92.6445C164.035 92.5339 163.109 91.8427 162.266 91.1446C161.16 90.2322 160.178 89.223 159.459 88.0756C159.238 87.7162 159.038 87.3636 159.038 86.9627C159.038 86.8867 159.045 86.8176 159.059 86.7346C159.045 86.6517 159.031 86.5618 159.031 86.4789C159.031 86.1747 159.135 85.8844 159.39 85.6425C160.22 84.8614 160.579 83.9421 160.766 82.9606C161.305 80.0782 162.425 77.2995 163.392 74.5C164.07 72.537 164.429 70.5186 165.183 68.5694C165.874 66.7929 166.289 64.9681 166.849 63.1779C167.491 61.0904 168.376 59.0858 169.641 57.1988C170.097 56.5214 170.789 56.2173 171.48 56.2173C172.282 56.2173 173.083 56.6182 173.519 57.3025C173.92 57.9315 174.224 58.5882 174.355 59.3209C174.694 61.2286 175.136 63.1157 175.862 64.9612C176.36 66.157 176.671 67.3943 176.933 68.6454C177.3 70.3735 178.033 72.0324 178.544 73.7397C179.173 75.8134 179.781 77.9008 180.196 80.0091C180.666 82.4352 181.862 84.7163 182.588 87.0871C182.678 87.3844 182.802 87.6816 182.857 87.9857C182.878 88.0756 182.878 88.1585 182.878 88.2346C182.878 88.8774 182.36 89.2437 181.565 89.2437C181.426 89.2437 181.274 89.2299 181.115 89.2092C180.286 89.0848 179.581 88.753 178.807 88.5456C178.385 88.435 178.136 88.1516 177.998 87.8129C177.777 87.2738 177.486 86.7484 177.314 86.2024C176.947 85.0757 176.332 84.0181 175.779 82.9467C175.565 82.532 175.344 82.3799 174.922 82.3799ZM169.192 79.4561C169.192 79.7395 169.496 79.9123 170.097 79.9123C170.104 79.9123 170.104 79.9123 170.111 79.9123C171.272 79.7187 172.641 79.5114 173.989 79.2487C174.438 79.1589 174.639 78.9515 174.639 78.6404C174.639 78.5437 174.618 78.4331 174.583 78.3156C174.21 77.099 173.864 75.8756 173.408 74.6867C172.973 73.5392 172.613 72.378 172.392 71.1822C172.192 70.0693 171.957 68.9565 171.735 67.8436C171.701 67.657 171.659 67.4772 171.383 67.4703H171.376C171.106 67.4703 171.065 67.6431 171.017 67.8298C170.878 68.4311 170.699 69.0325 170.664 69.6477C170.574 71.2444 170.298 72.8135 170.049 74.3894C169.786 76.0415 169.648 77.7073 169.199 79.3386C169.199 79.3731 169.192 79.4146 169.192 79.4561Z" fill="white"/>
<path d="M148.911 59.0721C150.778 58.0836 152.596 56.9707 154.704 56.5491C156.459 56.2173 158.16 55.1183 159.957 55.1183C160.303 55.1183 160.648 55.1598 161.008 55.2496C161.187 55.298 161.581 56.4938 161.685 56.6666C162.321 56.8049 162.66 58.291 162.66 58.2979C162.66 58.2979 162.66 58.291 162.653 58.2772C162.95 58.9062 163.144 59.4108 163.144 59.8462C163.144 60.413 162.805 60.8554 161.927 61.2563C160.399 61.9614 157.586 63.088 156.003 63.6963C153.384 64.8023 151.303 66.5718 150.142 69.2883C149.824 70.0417 149.499 70.7882 149.319 71.597C149.285 71.7698 149.188 71.9357 149.098 72.0946C147.805 74.3964 147.204 76.9263 146.775 79.5183C146.748 79.698 146.741 79.8778 146.741 80.0644C146.741 80.1266 146.741 80.1888 146.741 80.251C146.741 80.6035 146.727 80.9561 146.54 81.2948C146.955 83.714 147.978 85.8222 149.533 87.7093C151.566 90.17 154.227 91.1792 157.4 91.5179C158.201 91.6008 158.955 91.7667 159.584 92.2506C159.985 92.5616 160.337 92.8934 160.337 93.3842C160.337 93.4671 160.33 93.5501 160.31 93.6399C160.641 94.11 160.807 94.739 160.807 95.3196C160.807 95.8518 160.669 96.3426 160.379 96.6329C160.068 96.944 159.819 97.0546 159.542 97.0546C159.287 97.0546 159.017 96.9578 158.651 96.8541C158.111 96.785 156.909 96.6813 156.273 96.6813C156.218 96.6813 156.176 96.6813 156.128 96.6813C155.858 96.7919 155.582 96.8334 155.298 96.8334C154.351 96.8334 153.356 96.315 152.499 96.0316C151.573 95.7205 150.688 95.285 149.741 95.0224C149.374 94.9187 149.022 94.7182 148.711 94.4971C148.027 94.0132 147.328 93.557 146.52 93.1561C145.78 92.7897 145.227 92.216 144.771 91.5663C144.218 90.7714 143.624 90.0041 143.133 89.1816C142.704 88.4765 142.393 87.7024 142.172 86.9144C141.37 84.9237 140.596 82.926 140.084 80.8524C139.932 80.2303 139.884 79.6013 139.884 78.9723C139.884 78.3571 139.932 77.735 139.974 77.1267C140.091 75.4678 140.243 73.795 140.492 72.1499C140.893 69.4887 141.826 66.9658 143.292 64.6156C143.755 63.876 144.294 63.1917 144.799 62.4867C145.898 60.9867 147.363 59.8946 148.911 59.0721Z" fill="white"/>
<path d="M137.23 74.2374C137.23 74.6452 137.112 75.0461 136.87 75.4194C136.705 76.5806 136.642 77.7488 136.642 78.91C136.642 79.8017 136.677 80.6934 136.725 81.585C136.781 82.615 136.822 83.6449 136.822 84.6748C136.822 85.7877 136.781 86.8936 136.677 88.0065C136.566 89.1885 136.345 90.3773 135.875 91.5179C135.509 92.4026 135.232 93.315 134.921 94.2205C134.721 94.7942 134.472 95.3541 134.119 95.8656C133.871 96.6813 133.242 97.1859 132.35 97.4485C131.721 97.6351 131.182 97.8978 130.719 98.3471C129.938 99.1005 128.928 99.225 127.954 99.2872C127.587 99.3079 127.228 99.3217 126.862 99.3217C125.362 99.3217 123.889 99.1075 122.472 98.5476C122.175 98.4301 121.871 98.3678 121.567 98.3678C121.491 98.3678 121.422 98.3678 121.346 98.3817C121.249 98.3886 121.145 98.3955 121.055 98.3955C120.433 98.3955 119.873 98.202 119.334 97.884C117.903 97.0684 116.528 96.1836 115.38 94.9048C115.325 94.8426 115.291 94.7597 115.249 94.6836C114.883 94.3726 114.544 94.0408 114.309 93.633C113.141 92.4925 112.284 91.193 111.876 89.693C111.323 87.6678 110.929 85.6218 110.763 83.5274C110.673 82.4214 110.722 81.3016 110.556 80.2026C110.535 80.092 110.528 79.9814 110.528 79.8639C110.528 79.6911 110.549 79.5183 110.597 79.3524C110.908 78.281 110.943 77.1889 110.943 76.0898C110.943 75.924 110.943 75.765 110.943 75.606C110.943 75.4125 110.936 75.2189 110.936 75.0254C110.936 74.5623 110.964 74.0991 111.109 73.6429C111.15 73.5116 111.178 73.3664 111.178 73.2282C111.178 73.1107 111.157 72.9863 111.123 72.8826C110.874 72.219 110.777 71.5554 110.777 70.8919C110.777 69.8965 110.991 68.9012 111.226 67.9196C111.959 64.8506 113.348 61.989 115.125 59.2725C115.221 58.7057 115.643 58.2979 116.051 57.89C116.797 57.1228 117.627 56.4661 118.29 55.6574C118.519 55.3809 118.864 55.2565 119.182 55.1183C119.853 54.821 120.551 54.5791 121.124 54.1091C121.366 53.9086 121.671 53.9017 121.961 53.8948C121.982 53.8948 121.995 53.8948 122.016 53.8948C122.265 53.8948 122.521 53.9294 122.77 53.9294C122.915 53.9294 123.06 53.9155 123.191 53.881C123.246 53.8671 123.302 53.8602 123.357 53.8602C123.786 53.8602 124.014 54.3579 124.38 54.3579C124.428 54.3579 124.477 54.351 124.525 54.3303C124.788 54.2404 125.03 54.1989 125.272 54.1989C125.472 54.1989 125.673 54.2266 125.887 54.2888C128.002 54.8971 129.806 55.9823 131.513 57.4891C132.205 58.0974 132.93 58.6642 133.248 59.5213C133.366 59.8393 133.649 60.1089 133.871 60.3853C134.251 60.8623 134.493 61.3807 134.652 61.9475C134.907 62.8323 135.246 63.6894 135.682 64.5327C136.11 65.369 136.49 66.2123 136.49 67.1593C136.49 67.498 136.546 67.8505 136.684 68.1685C137.043 69.0048 137.078 69.862 137.078 70.726C137.078 70.9403 137.078 71.1615 137.078 71.3826C137.078 71.5002 137.078 71.6177 137.078 71.7352C137.092 72.4471 137.05 73.1591 137.181 73.871C137.216 73.9816 137.23 74.106 137.23 74.2374ZM129.834 74.5968C129.834 74.424 129.896 74.2512 129.903 74.0784C129.951 73.2766 130.007 72.4679 130.007 71.666C130.007 70.5601 129.91 69.4541 129.599 68.3689C129.101 66.5787 128.631 64.7815 128.168 62.9843C128.016 62.376 127.836 61.7678 127.636 61.1733C127.145 59.7563 126.143 58.8785 124.622 58.5744C124.076 58.4638 123.516 58.4154 122.956 58.367C122.88 58.3601 122.804 58.3532 122.728 58.3532C122.051 58.3532 121.512 58.6227 121.104 59.155C120.067 60.5167 119.154 61.9475 118.553 63.5442C117.993 65.0234 117.779 66.5856 117.316 68.0924C116.943 69.3021 116.721 70.5463 116.638 71.7974C116.514 73.5323 116.459 75.2742 116.431 77.0161C116.424 77.6313 116.41 78.2464 116.41 78.8616C116.41 80.3823 116.459 81.903 116.638 83.4237C116.846 85.2139 117.032 86.9973 117.509 88.7392C117.682 89.3751 118.014 89.8866 118.491 90.329C118.781 90.5916 119.141 90.7921 119.293 91.1722C119.3 91.1861 119.307 91.193 119.307 91.2068C119.362 91.193 119.41 91.1861 119.459 91.1861C119.749 91.1861 119.949 91.4004 120.164 91.5455C120.648 91.8704 121.159 92.0294 121.684 92.0294C121.982 92.0294 122.279 91.981 122.59 91.8773C122.901 91.7736 123.198 91.7114 123.482 91.7114C123.945 91.7114 124.359 91.8842 124.726 92.3335C124.85 92.4925 125.03 92.5616 125.23 92.5616C125.299 92.5616 125.375 92.5547 125.451 92.5339C125.631 92.451 125.79 92.3473 125.942 92.2436C126.779 91.1515 127.387 89.935 127.815 88.6355C128.728 85.8568 129.309 83.002 129.599 80.0989C129.647 79.6358 129.696 79.1727 129.744 78.7096C129.737 78.6612 129.737 78.6128 129.737 78.5644C129.737 78.3916 129.765 78.2119 129.806 78.0391C129.82 77.9838 129.827 77.9285 129.834 77.8801C129.868 77.576 129.896 77.2649 129.931 76.9608C129.931 76.94 129.931 76.9193 129.938 76.9055C129.972 76.6013 129.993 76.3041 129.993 76.0069C129.993 75.6406 129.972 75.2742 129.924 74.9148C129.861 74.8042 129.834 74.7005 129.834 74.5968Z" fill="white"/>
</g>
</svg>
